# xmcd CD database file
# Copyright (C) 1997 Ti Kan
#
# Track frame offsets:
#  150
#  12715
#  27205
#  44442
#  59125
#  70702
#  84112
#  96962
#  112900
#  129952
#  148457
#  168452
#  183225
#  198742
#  214875
#
# Disc length: 3117 seconds
#
# Revision: 1
# Processed by: cddbd v1.4b41PL1 Copyright (c) Steve Scherf et al.
# Submitted via: CDWizzard Release:4.32
#
DISCID=dd0c2b0f
DTITLE=Rock City Angels - Young Man's Blues
DYEAR=1900
DGENRE=
TTITLE0=Deep Inside My Heart
TTITLE1=Hard To Hold
TTITLE2=Mary
TTITLE3=Our Little Secret
TTITLE4=Damned Don't Cry
TTITLE5=Wild Tiger
TTITLE6=These Arms Of Mine
TTITLE7=Rumblefish
TTITLE8=Boy From Hell's Kitchen
TTITLE9=Liza Jo
TTITLE10=Beyond Babylon
TTITLE11=Hush Child
TTITLE12=Ya Gotta Swear
TTITLE13=Rough 'N' Tumble
TTITLE14=South Of The Border
EXTD=
EXTT0=
EXTT1=
EXTT2=
EXTT3=
EXTT4=
EXTT5=
EXTT6=
EXTT7=
EXTT8=
EXTT9=
EXTT10=
EXTT11=
EXTT12=
EXTT13=
EXTT14=
PLAYORDER=
